REM DIRINDEX 1\2,1\3,1\4,1\5,1\6,1\7,1\8
REM DIRNAME folder01,folder02,folder03,folder04,folder05,folder06,folder07,folder08
TITLE ""
FILE "003 でる文03.mp3" MP3
  TRACK 01 AUDIO
    TITLE "0:"
    INDEX 01 00:00:00
  TRACK 02 AUDIO
    TITLE "8:cjc150_0099"
    INDEX 01 00:00:01
  TRACK 03 AUDIO
    TITLE "0:"
    INDEX 01 00:01:30
  TRACK 04 AUDIO
    TITLE "2:cjc150_0100"
    INDEX 01 00:02:18
  TRACK 05 AUDIO
    TITLE "0:"
    INDEX 01 00:06:53
  TRACK 06 AUDIO
    TITLE "8:cjc150_0101"
    INDEX 01 00:08:07
  TRACK 07 AUDIO
    TITLE "0:"
    INDEX 01 00:10:59
  TRACK 08 AUDIO
    TITLE "3:cjc150_0102"
    INDEX 01 00:11:56
  TRACK 09 AUDIO
    TITLE "3:cjc150_0103"
    INDEX 01 00:13:35
  TRACK 10 AUDIO
    TITLE "3:cjc150_0104"
    INDEX 01 00:15:11
  TRACK 11 AUDIO
    TITLE "3:cjc150_0105"
    INDEX 01 00:17:00
  TRACK 12 AUDIO
    TITLE "3:cjc150_0106"
    INDEX 01 00:18:48
  TRACK 13 AUDIO
    TITLE "3:cjc150_0107"
    INDEX 01 00:20:24
  TRACK 14 AUDIO
    TITLE "3:cjc150_0108"
    INDEX 01 00:21:64
  TRACK 15 AUDIO
    TITLE "3:cjc150_0109"
    INDEX 01 00:23:32
  TRACK 16 AUDIO
    TITLE "8:cjc150_0110"
    INDEX 01 00:25:01
  TRACK 17 AUDIO
    TITLE "0:"
    INDEX 01 00:27:51
  TRACK 18 AUDIO
    TITLE "4:cjc150_0111"
    INDEX 01 00:28:43
  TRACK 19 AUDIO
    TITLE "4:cjc150_0112"
    INDEX 01 00:30:26
  TRACK 20 AUDIO
    TITLE "4:cjc150_0113"
    INDEX 01 00:32:43
  TRACK 21 AUDIO
    TITLE "4:cjc150_0114"
    INDEX 01 00:35:06
  TRACK 22 AUDIO
    TITLE "4:cjc150_0115"
    INDEX 01 00:38:30
  TRACK 23 AUDIO
    TITLE "4:cjc150_0116"
    INDEX 01 00:39:68
  TRACK 24 AUDIO
    TITLE "8:cjc150_0117"
    INDEX 01 00:42:00
  TRACK 25 AUDIO
    TITLE "0:"
    INDEX 01 00:44:69
  TRACK 26 AUDIO
    TITLE "5:cjc150_0118"
    INDEX 01 00:45:63
  TRACK 27 AUDIO
    TITLE "5:cjc150_0119"
    INDEX 01 00:48:18
  TRACK 28 AUDIO
    TITLE "5:cjc150_0120"
    INDEX 01 00:51:09
  TRACK 29 AUDIO
    TITLE "5:cjc150_0121"
    INDEX 01 00:52:63
  TRACK 30 AUDIO
    TITLE "5:cjc150_0122"
    INDEX 01 00:54:42
  TRACK 31 AUDIO
    TITLE "5:cjc150_0123"
    INDEX 01 00:56:67
  TRACK 32 AUDIO
    TITLE "5:cjc150_0124"
    INDEX 01 00:59:32
  TRACK 33 AUDIO
    TITLE "5:cjc150_0125"
    INDEX 01 01:01:21
  TRACK 34 AUDIO
    TITLE "5:cjc150_0126"
    INDEX 01 01:02:71
  TRACK 35 AUDIO
    TITLE "5:cjc150_0127"
    INDEX 01 01:04:37
  TRACK 36 AUDIO
    TITLE "5:cjc150_0128"
    INDEX 01 01:07:04
  TRACK 37 AUDIO
    TITLE "5:cjc150_0129"
    INDEX 01 01:08:52
  TRACK 38 AUDIO
    TITLE "5:cjc150_0130"
    INDEX 01 01:10:24
  TRACK 39 AUDIO
    TITLE "5:cjc150_0131"
    INDEX 01 01:11:72
  TRACK 40 AUDIO
    TITLE "5:cjc150_0132"
    INDEX 01 01:14:43
  TRACK 41 AUDIO
    TITLE "5:cjc150_0133"
    INDEX 01 01:16:12
  TRACK 42 AUDIO
    TITLE "8:cjc150_0134"
    INDEX 01 01:17:71
  TRACK 43 AUDIO
    TITLE "0:"
    INDEX 01 01:20:51
  TRACK 44 AUDIO
    TITLE "6:cjc150_0135"
    INDEX 01 01:21:45
  TRACK 45 AUDIO
    TITLE "6:cjc150_0136"
    INDEX 01 01:24:02
  TRACK 46 AUDIO
    TITLE "6:cjc150_0137"
    INDEX 01 01:26:62
  TRACK 47 AUDIO
    TITLE "6:cjc150_0138"
    INDEX 01 01:28:45
  TRACK 48 AUDIO
    TITLE "6:cjc150_0139"
    INDEX 01 01:30:40
  TRACK 49 AUDIO
    TITLE "6:cjc150_0140"
    INDEX 01 01:33:27
  TRACK 50 AUDIO
    TITLE "6:cjc150_0141"
    INDEX 01 01:36:74
  TRACK 51 AUDIO
    TITLE "6:cjc150_0142"
    INDEX 01 01:39:37
  TRACK 52 AUDIO
    TITLE "6:cjc150_0143"
    INDEX 01 01:42:14
  TRACK 53 AUDIO
    TITLE "6:cjc150_0144"
    INDEX 01 01:43:58
  TRACK 54 AUDIO
    TITLE "6:cjc150_0145"
    INDEX 01 01:46:27
  TRACK 55 AUDIO
    TITLE "6:cjc150_0146"
    INDEX 01 01:47:68
  TRACK 56 AUDIO
    TITLE "8:cjc150_0147"
    INDEX 01 01:49:04
  TRACK 57 AUDIO
    TITLE "0:"
    INDEX 01 01:50:58
  TRACK 58 AUDIO
    TITLE "7:cjc150_0148"
    INDEX 01 01:51:60
  TRACK 59 AUDIO
    TITLE "7:cjc150_0149"
    INDEX 01 01:56:20
  TRACK 60 AUDIO
    TITLE "0:"
    INDEX 01 01:59:71
